<mxfile>
    <diagram id="yohn3P8rIfoVHCXQU40J" name="Page-1">
        <mxGraphModel dx="912" dy="395" grid="1" gridSize="10" guides="1" tooltips="1" connect="1" arrows="1" fold="1" page="1" pageScale="1" pageWidth="850" pageHeight="1100" math="0" shadow="0">
            <root>
                <mxCell id="0"/>
                <mxCell id="1" parent="0"/>
                <mxCell id="2" value="" style="rounded=1;whiteSpace=wrap;html=1;" parent="1" vertex="1">
                    <mxGeometry x="370" y="130" width="80" height="50" as="geometry"/>
                </mxCell>
                <mxCell id="3" value="" style="rounded=1;whiteSpace=wrap;html=1;" parent="1" vertex="1">
                    <mxGeometry x="150" y="240" width="80" height="40" as="geometry"/>
                </mxCell>
                <mxCell id="4" value="" style="rounded=1;whiteSpace=wrap;html=1;" parent="1" vertex="1">
                    <mxGeometry x="300" y="240" width="80" height="40" as="geometry"/>
                </mxCell>
                <mxCell id="5" value="" style="rounded=1;whiteSpace=wrap;html=1;" parent="1" vertex="1">
                    <mxGeometry x="460" y="240" width="80" height="40" as="geometry"/>
                </mxCell>
                <mxCell id="6" value="" style="rounded=1;whiteSpace=wrap;html=1;" parent="1" vertex="1">
                    <mxGeometry x="600" y="240" width="80" height="40" as="geometry"/>
                </mxCell>
                <mxCell id="7" value="100x100" style="text;html=1;align=center;verticalAlign=middle;resizable=0;points=[];autosize=1;" parent="1" vertex="1">
                    <mxGeometry x="40" y="60" width="60" height="20" as="geometry"/>
                </mxCell>
                <mxCell id="8" value="&lt;span&gt;y &amp;lt; 100 &amp;amp;&amp;amp; y &amp;gt;= 100/2&lt;br&gt;x &amp;lt; 100/2 &amp;amp;&amp;amp; x &amp;gt;= 0&lt;br&gt;&lt;/span&gt;" style="text;html=1;align=center;verticalAlign=middle;resizable=0;points=[];autosize=1;" parent="1" vertex="1">
                    <mxGeometry x="125" y="200" width="130" height="30" as="geometry"/>
                </mxCell>
                <mxCell id="9" value="&lt;span&gt;y &amp;lt; 100 &amp;amp;&amp;amp; y &amp;gt;= 100/2&lt;br&gt;x &amp;gt;= 100/2 &amp;amp;&amp;amp; x &amp;lt;100&lt;br&gt;&lt;/span&gt;" style="text;html=1;align=center;verticalAlign=middle;resizable=0;points=[];autosize=1;" parent="1" vertex="1">
                    <mxGeometry x="275" y="200" width="130" height="30" as="geometry"/>
                </mxCell>
            </root>
        </mxGraphModel>
    </diagram>
    <diagram id="asGn0M9yyfJz0YJkpgV5" name="Page-2">
        &#xa;
        <mxGraphModel dx="244" dy="599" grid="1" gridSize="10" guides="1" tooltips="1" connect="1" arrows="1" fold="1" page="1" pageScale="1" pageWidth="850" pageHeight="1100" math="0" shadow="0">
            &#xa;
            <root>
                &#xa;
                <mxCell id="PMfNcEaYvSHzo-C7bVfD-0"/>
                &#xa;
                <mxCell id="PMfNcEaYvSHzo-C7bVfD-1" parent="PMfNcEaYvSHzo-C7bVfD-0"/>
                &#xa;
                <mxCell id="PMfNcEaYvSHzo-C7bVfD-2" value="" style="whiteSpace=wrap;html=1;aspect=fixed;" parent="PMfNcEaYvSHzo-C7bVfD-1" vertex="1">
                    &#xa;
                    <mxGeometry x="120" y="120" width="360" height="360" as="geometry"/>
                    &#xa;
                </mxCell>
                &#xa;
                <mxCell id="PMfNcEaYvSHzo-C7bVfD-3" value="100" style="text;html=1;align=center;verticalAlign=middle;resizable=0;points=[];autosize=1;" parent="PMfNcEaYvSHzo-C7bVfD-1" vertex="1">
                    &#xa;
                    <mxGeometry x="80" y="290" width="40" height="20" as="geometry"/>
                    &#xa;
                </mxCell>
                &#xa;
                <mxCell id="PMfNcEaYvSHzo-C7bVfD-4" value="100" style="text;html=1;align=center;verticalAlign=middle;resizable=0;points=[];autosize=1;" parent="PMfNcEaYvSHzo-C7bVfD-1" vertex="1">
                    &#xa;
                    <mxGeometry x="280" y="480" width="40" height="20" as="geometry"/>
                    &#xa;
                </mxCell>
                &#xa;
                <mxCell id="PMfNcEaYvSHzo-C7bVfD-5" value="" style="endArrow=none;html=1;entryX=0.5;entryY=0;entryDx=0;entryDy=0;" parent="PMfNcEaYvSHzo-C7bVfD-1" source="PMfNcEaYvSHzo-C7bVfD-4" target="PMfNcEaYvSHzo-C7bVfD-2" edge="1">
                    &#xa;
                    <mxGeometry width="50" height="50" relative="1" as="geometry">
                        &#xa;
                        <mxPoint x="270" y="310" as="sourcePoint"/>
                        &#xa;
                        <mxPoint x="320" y="260" as="targetPoint"/>
                        &#xa;
                    </mxGeometry>
                    &#xa;
                </mxCell>
                &#xa;
                <mxCell id="PMfNcEaYvSHzo-C7bVfD-6" value="" style="endArrow=none;html=1;entryX=0;entryY=0.5;entryDx=0;entryDy=0;exitX=1;exitY=0.5;exitDx=0;exitDy=0;" parent="PMfNcEaYvSHzo-C7bVfD-1" source="PMfNcEaYvSHzo-C7bVfD-2" target="PMfNcEaYvSHzo-C7bVfD-2" edge="1">
                    &#xa;
                    <mxGeometry width="50" height="50" relative="1" as="geometry">
                        &#xa;
                        <mxPoint x="-30" y="270" as="sourcePoint"/>
                        &#xa;
                        <mxPoint x="20" y="220" as="targetPoint"/>
                        &#xa;
                    </mxGeometry>
                    &#xa;
                </mxCell>
                &#xa;
                <mxCell id="PMfNcEaYvSHzo-C7bVfD-9" value="50" style="text;html=1;strokeColor=none;fillColor=none;align=center;verticalAlign=middle;whiteSpace=wrap;rounded=0;" parent="PMfNcEaYvSHzo-C7bVfD-1" vertex="1">
                    &#xa;
                    <mxGeometry x="370" y="280" width="40" height="20" as="geometry"/>
                    &#xa;
                </mxCell>
                &#xa;
                <mxCell id="PMfNcEaYvSHzo-C7bVfD-10" value="50" style="text;html=1;strokeColor=none;fillColor=none;align=center;verticalAlign=middle;whiteSpace=wrap;rounded=0;" parent="PMfNcEaYvSHzo-C7bVfD-1" vertex="1">
                    &#xa;
                    <mxGeometry x="300" y="380" width="40" height="20" as="geometry"/>
                    &#xa;
                </mxCell>
                &#xa;
                <mxCell id="PMfNcEaYvSHzo-C7bVfD-12" value="NE" style="text;html=1;strokeColor=none;fillColor=none;align=center;verticalAlign=middle;whiteSpace=wrap;rounded=0;" parent="PMfNcEaYvSHzo-C7bVfD-1" vertex="1">
                    &#xa;
                    <mxGeometry x="370" y="100" width="40" height="20" as="geometry"/>
                    &#xa;
                </mxCell>
                &#xa;
                <mxCell id="PMfNcEaYvSHzo-C7bVfD-13" value="NW" style="text;html=1;strokeColor=none;fillColor=none;align=center;verticalAlign=middle;whiteSpace=wrap;rounded=0;" parent="PMfNcEaYvSHzo-C7bVfD-1" vertex="1">
                    &#xa;
                    <mxGeometry x="200" y="100" width="40" height="20" as="geometry"/>
                    &#xa;
                </mxCell>
                &#xa;
                <mxCell id="PMfNcEaYvSHzo-C7bVfD-15" value="SE" style="text;html=1;strokeColor=none;fillColor=none;align=center;verticalAlign=middle;whiteSpace=wrap;rounded=0;" parent="PMfNcEaYvSHzo-C7bVfD-1" vertex="1">
                    &#xa;
                    <mxGeometry x="370" y="480" width="40" height="20" as="geometry"/>
                    &#xa;
                </mxCell>
                &#xa;
                <mxCell id="PMfNcEaYvSHzo-C7bVfD-16" value="SW" style="text;html=1;strokeColor=none;fillColor=none;align=center;verticalAlign=middle;whiteSpace=wrap;rounded=0;" parent="PMfNcEaYvSHzo-C7bVfD-1" vertex="1">
                    &#xa;
                    <mxGeometry x="190" y="480" width="40" height="20" as="geometry"/>
                    &#xa;
                </mxCell>
                &#xa;
                <mxCell id="PMfNcEaYvSHzo-C7bVfD-17" value="" style="whiteSpace=wrap;html=1;aspect=fixed;" parent="PMfNcEaYvSHzo-C7bVfD-1" vertex="1">
                    &#xa;
                    <mxGeometry x="390" y="390" width="90" height="90" as="geometry"/>
                    &#xa;
                </mxCell>
                &#xa;
                <mxCell id="PMfNcEaYvSHzo-C7bVfD-18" value="Text" style="text;html=1;strokeColor=none;fillColor=none;align=center;verticalAlign=middle;whiteSpace=wrap;rounded=0;" parent="PMfNcEaYvSHzo-C7bVfD-1" vertex="1">
                    &#xa;
                    <mxGeometry x="480" y="425" width="40" height="20" as="geometry"/>
                    &#xa;
                </mxCell>
                &#xa;
            </root>
            &#xa;
        </mxGraphModel>
        &#xa;
    </diagram>
    <diagram id="aDCWjuKrct5ermacZ76i" name="Page-3">
        <mxGraphModel dx="960" dy="564" grid="1" gridSize="10" guides="1" tooltips="1" connect="1" arrows="1" fold="1" page="1" pageScale="1" pageWidth="850" pageHeight="1100" math="0" shadow="0">
            <root>
                <mxCell id="xM_jIYDYVyawxchvTXN9-0"/>
                <mxCell id="xM_jIYDYVyawxchvTXN9-1" parent="xM_jIYDYVyawxchvTXN9-0"/>
                <mxCell id="xM_jIYDYVyawxchvTXN9-2" value="" style="whiteSpace=wrap;html=1;aspect=fixed;" vertex="1" parent="xM_jIYDYVyawxchvTXN9-1">
                    <mxGeometry x="120" y="80" width="400" height="400" as="geometry"/>
                </mxCell>
                <mxCell id="xM_jIYDYVyawxchvTXN9-3" value="NW" style="whiteSpace=wrap;html=1;aspect=fixed;" vertex="1" parent="xM_jIYDYVyawxchvTXN9-1">
                    <mxGeometry x="120" y="80" width="200" height="200" as="geometry"/>
                </mxCell>
                <mxCell id="xM_jIYDYVyawxchvTXN9-4" value="127" style="text;html=1;strokeColor=none;fillColor=none;align=center;verticalAlign=middle;whiteSpace=wrap;rounded=0;" vertex="1" parent="xM_jIYDYVyawxchvTXN9-1">
                    <mxGeometry x="300" y="500" width="40" height="20" as="geometry"/>
                </mxCell>
                <mxCell id="xM_jIYDYVyawxchvTXN9-5" value="127" style="text;html=1;strokeColor=none;fillColor=none;align=center;verticalAlign=middle;whiteSpace=wrap;rounded=0;" vertex="1" parent="xM_jIYDYVyawxchvTXN9-1">
                    <mxGeometry x="70" y="310" width="40" height="20" as="geometry"/>
                </mxCell>
                <mxCell id="xM_jIYDYVyawxchvTXN9-14" style="rounded=0;orthogonalLoop=1;jettySize=auto;html=1;exitX=0;exitY=1;exitDx=0;exitDy=0;entryX=0.5;entryY=0;entryDx=0;entryDy=0;" edge="1" parent="xM_jIYDYVyawxchvTXN9-1" source="xM_jIYDYVyawxchvTXN9-8" target="xM_jIYDYVyawxchvTXN9-13">
                    <mxGeometry relative="1" as="geometry"/>
                </mxCell>
                <mxCell id="biXIwlyf4-Hiia2zbipZ-2" value="NW" style="edgeLabel;html=1;align=center;verticalAlign=middle;resizable=0;points=[];" connectable="0" vertex="1" parent="xM_jIYDYVyawxchvTXN9-14">
                    <mxGeometry x="-0.1986" y="2" relative="1" as="geometry">
                        <mxPoint as="offset"/>
                    </mxGeometry>
                </mxCell>
                <mxCell id="biXIwlyf4-Hiia2zbipZ-1" style="rounded=0;orthogonalLoop=1;jettySize=auto;html=1;exitX=1;exitY=1;exitDx=0;exitDy=0;entryX=0.5;entryY=0;entryDx=0;entryDy=0;" edge="1" parent="xM_jIYDYVyawxchvTXN9-1" source="xM_jIYDYVyawxchvTXN9-8" target="biXIwlyf4-Hiia2zbipZ-0">
                    <mxGeometry relative="1" as="geometry"/>
                </mxCell>
                <mxCell id="biXIwlyf4-Hiia2zbipZ-3" value="SE" style="edgeLabel;html=1;align=center;verticalAlign=middle;resizable=0;points=[];" connectable="0" vertex="1" parent="biXIwlyf4-Hiia2zbipZ-1">
                    <mxGeometry x="-0.2484" y="-3" relative="1" as="geometry">
                        <mxPoint as="offset"/>
                    </mxGeometry>
                </mxCell>
                <mxCell id="biXIwlyf4-Hiia2zbipZ-6" style="edgeStyle=none;rounded=0;orthogonalLoop=1;jettySize=auto;html=1;exitX=0.5;exitY=1;exitDx=0;exitDy=0;entryX=0.5;entryY=0;entryDx=0;entryDy=0;" edge="1" parent="xM_jIYDYVyawxchvTXN9-1" source="xM_jIYDYVyawxchvTXN9-8" target="biXIwlyf4-Hiia2zbipZ-5">
                    <mxGeometry relative="1" as="geometry"/>
                </mxCell>
                <mxCell id="biXIwlyf4-Hiia2zbipZ-8" value="NE" style="edgeLabel;html=1;align=center;verticalAlign=middle;resizable=0;points=[];" connectable="0" vertex="1" parent="biXIwlyf4-Hiia2zbipZ-6">
                    <mxGeometry x="-0.2784" y="4" relative="1" as="geometry">
                        <mxPoint as="offset"/>
                    </mxGeometry>
                </mxCell>
                <mxCell id="xM_jIYDYVyawxchvTXN9-8" value="127,127" style="ellipse;whiteSpace=wrap;html=1;aspect=fixed;" vertex="1" parent="xM_jIYDYVyawxchvTXN9-1">
                    <mxGeometry x="790" y="90" width="80" height="80" as="geometry"/>
                </mxCell>
                <mxCell id="xM_jIYDYVyawxchvTXN9-9" value="SW" style="whiteSpace=wrap;html=1;aspect=fixed;" vertex="1" parent="xM_jIYDYVyawxchvTXN9-1">
                    <mxGeometry x="120" y="280" width="200" height="200" as="geometry"/>
                </mxCell>
                <mxCell id="xM_jIYDYVyawxchvTXN9-6" value="A (40,45)" style="ellipse;whiteSpace=wrap;html=1;aspect=fixed;" vertex="1" parent="xM_jIYDYVyawxchvTXN9-1">
                    <mxGeometry x="230" y="180" width="50" height="50" as="geometry"/>
                </mxCell>
                <mxCell id="xM_jIYDYVyawxchvTXN9-11" value="NE" style="whiteSpace=wrap;html=1;aspect=fixed;" vertex="1" parent="xM_jIYDYVyawxchvTXN9-1">
                    <mxGeometry x="320" y="80" width="200" height="200" as="geometry"/>
                </mxCell>
                <mxCell id="xM_jIYDYVyawxchvTXN9-13" value="A (40,45)" style="ellipse;whiteSpace=wrap;html=1;aspect=fixed;" vertex="1" parent="xM_jIYDYVyawxchvTXN9-1">
                    <mxGeometry x="660" y="220" width="50" height="50" as="geometry"/>
                </mxCell>
                <mxCell id="WF0rCLvD18SRpSlCU7K2-0" value="SE" style="whiteSpace=wrap;html=1;aspect=fixed;" vertex="1" parent="xM_jIYDYVyawxchvTXN9-1">
                    <mxGeometry x="320" y="280" width="200" height="200" as="geometry"/>
                </mxCell>
                <mxCell id="biXIwlyf4-Hiia2zbipZ-0" value="B (15,70)" style="ellipse;whiteSpace=wrap;html=1;aspect=fixed;" vertex="1" parent="xM_jIYDYVyawxchvTXN9-1">
                    <mxGeometry x="880" y="255" width="50" height="50" as="geometry"/>
                </mxCell>
                <mxCell id="WF0rCLvD18SRpSlCU7K2-1" value="0,0" style="text;html=1;align=center;verticalAlign=middle;resizable=0;points=[];autosize=1;" vertex="1" parent="xM_jIYDYVyawxchvTXN9-1">
                    <mxGeometry x="95" y="50" width="30" height="20" as="geometry"/>
                </mxCell>
                <mxCell id="biXIwlyf4-Hiia2zbipZ-4" value="B (15,70)" style="ellipse;whiteSpace=wrap;html=1;aspect=fixed;" vertex="1" parent="xM_jIYDYVyawxchvTXN9-1">
                    <mxGeometry x="160" y="295" width="50" height="50" as="geometry"/>
                </mxCell>
                <mxCell id="WF0rCLvD18SRpSlCU7K2-2" value="127, 127" style="text;html=1;align=center;verticalAlign=middle;resizable=0;points=[];autosize=1;" vertex="1" parent="xM_jIYDYVyawxchvTXN9-1">
                    <mxGeometry x="510" y="490" width="60" height="20" as="geometry"/>
                </mxCell>
                <mxCell id="biXIwlyf4-Hiia2zbipZ-5" value="C (70,10)" style="ellipse;whiteSpace=wrap;html=1;aspect=fixed;" vertex="1" parent="xM_jIYDYVyawxchvTXN9-1">
                    <mxGeometry x="760" y="245" width="50" height="50" as="geometry"/>
                </mxCell>
                <mxCell id="biXIwlyf4-Hiia2zbipZ-7" value="C (70,10)" style="ellipse;whiteSpace=wrap;html=1;aspect=fixed;" vertex="1" parent="xM_jIYDYVyawxchvTXN9-1">
                    <mxGeometry x="350" y="100" width="50" height="50" as="geometry"/>
                </mxCell>
                <mxCell id="biXIwlyf4-Hiia2zbipZ-9" value="D (69,50)" style="ellipse;whiteSpace=wrap;html=1;aspect=fixed;" vertex="1" parent="xM_jIYDYVyawxchvTXN9-1">
                    <mxGeometry x="700" y="340" width="50" height="50" as="geometry"/>
                </mxCell>
            </root>
        </mxGraphModel>
    </diagram>
</mxfile>